<svg width="1033" height="1011" viewBox="0 0 1033 1011" fill="none" xmlns="http://www.w3.org/2000/svg">
<path d="M112.404 406.734H99.6662C85.9968 406.734 72.8873 412.164 63.2216 421.83C53.5559 431.495 48.1257 444.605 48.1257 458.274V741.101C48.1257 754.77 53.5559 767.88 63.2216 777.545C72.8873 787.211 85.9968 792.641 99.6662 792.641H274.429C288.098 792.641 301.208 787.211 310.874 777.545C320.539 767.88 325.97 754.77 325.97 741.101" stroke="#B8B8FF" stroke-width="1.10311" stroke-linecap="round" stroke-linejoin="round" stroke-dasharray="4.41 4.41"/>
<path d="M311.727 139.866V84.0008C311.727 75.6418 315.043 67.6242 320.947 61.7069C326.851 55.7896 334.861 52.4559 343.22 52.4372H570.487C578.858 52.4372 586.886 55.7627 592.806 61.682C598.725 67.6013 602.051 75.6296 602.051 84.0008" stroke="#B8B8FF" stroke-width="1.10311" stroke-linecap="round" stroke-linejoin="round" stroke-dasharray="4.41 4.41"/>
<path d="M516.197 1010.7C764.789 1010.7 966.312 982.537 966.312 947.803C966.312 913.069 764.789 884.911 516.197 884.911C267.605 884.911 66.0815 913.069 66.0815 947.803C66.0815 982.537 267.605 1010.7 516.197 1010.7Z" fill="#9381FF"/>
<path opacity="0.5" d="M516.197 1010.7C764.789 1010.7 966.312 982.537 966.312 947.803C966.312 913.069 764.789 884.911 516.197 884.911C267.605 884.911 66.0815 913.069 66.0815 947.803C66.0815 982.537 267.605 1010.7 516.197 1010.7Z" fill="white"/>
<path d="M940.507 214.814V637.996C940.507 651.83 935.013 665.097 925.233 674.881C915.454 684.665 902.189 690.165 888.355 690.171H144.038C130.205 690.165 116.94 684.665 107.16 674.881C97.3807 665.097 91.887 651.83 91.887 637.996V214.814C91.887 213.569 91.887 212.464 92.0515 211.148C92.9677 197.984 98.8425 185.657 108.491 176.654C118.139 167.652 130.842 162.643 144.038 162.639H888.355C901.567 162.645 914.283 167.666 923.933 176.689C933.584 185.711 939.449 198.061 940.342 211.242C940.46 212.37 940.507 213.592 940.507 214.814Z" fill="white" stroke="#B8B8FF" stroke-width="1.10311" stroke-linecap="round" stroke-linejoin="round"/>
<path d="M117.269 230.702H917.78V621.615C917.78 634.58 912.63 647.014 903.462 656.182C894.294 665.349 881.86 670.5 868.895 670.5H166.178C153.213 670.5 140.779 665.349 131.611 656.182C122.443 647.014 117.293 634.58 117.293 621.615V230.702H117.269Z" fill="#B8B8FF"/>
<path opacity="0.2" d="M917.804 230.702V621.615C917.872 634.508 912.818 646.9 903.753 656.067C894.687 665.234 882.352 670.425 869.459 670.5H165.614C152.721 670.425 140.386 665.234 131.32 656.067C122.255 646.9 117.201 634.508 117.269 621.615V230.702H917.804Z" fill="white"/>
<path d="M940.342 211.242H92.0515C92.9677 198.078 98.8425 185.751 108.491 176.748C118.139 167.746 130.842 162.737 144.039 162.733H888.355C901.551 162.737 914.255 167.746 923.903 176.748C933.551 185.751 939.426 198.078 940.342 211.242V211.242Z" fill="#9381FF" stroke="#B8B8FF" stroke-width="1.10311" stroke-miterlimit="10"/>
<path d="M196.284 186.894C196.284 188.72 195.742 190.506 194.727 192.025C193.713 193.544 192.27 194.728 190.582 195.427C188.895 196.126 187.037 196.309 185.246 195.953C183.454 195.596 181.808 194.717 180.517 193.425C179.225 192.133 178.345 190.487 177.989 188.696C177.632 186.904 177.815 185.047 178.514 183.359C179.213 181.671 180.397 180.229 181.916 179.214C183.435 178.199 185.221 177.657 187.048 177.657C189.497 177.657 191.847 178.63 193.579 180.363C195.311 182.095 196.284 184.444 196.284 186.894Z" fill="#B8B8FF"/>
<path d="M235.345 186.894C235.345 188.72 234.803 190.506 233.788 192.025C232.773 193.544 231.331 194.728 229.643 195.427C227.955 196.126 226.098 196.309 224.307 195.953C222.515 195.596 220.869 194.717 219.577 193.425C218.286 192.133 217.406 190.487 217.05 188.696C216.693 186.904 216.876 185.047 217.575 183.359C218.274 181.671 219.458 180.229 220.977 179.214C222.496 178.199 224.282 177.657 226.108 177.657C228.558 177.657 230.907 178.63 232.64 180.363C234.372 182.095 235.345 184.444 235.345 186.894V186.894Z" fill="#B8B8FF"/>
<path d="M265.169 196.13C270.27 196.13 274.406 191.995 274.406 186.894C274.406 181.793 270.27 177.657 265.169 177.657C260.068 177.657 255.933 181.793 255.933 186.894C255.933 191.995 260.068 196.13 265.169 196.13Z" fill="#B8B8FF"/>
<path d="M917.78 230.702V621.615C917.78 634.58 912.63 647.014 903.462 656.182C894.294 665.349 881.86 670.5 868.895 670.5H166.178C154.862 670.498 143.898 666.57 135.154 659.387C126.411 652.204 120.431 642.21 118.233 631.11V630.969C117.635 627.871 117.336 624.723 117.34 621.568V230.702H917.78Z" stroke="#B8B8FF" stroke-width="1.10311" stroke-miterlimit="10"/>
<path d="M917.028 291.15C913.601 289.225 909.956 287.718 906.17 286.661L901.775 267.036H883.114L878.766 286.661C874.959 287.699 871.296 289.207 867.861 291.15L851.01 280.362L837.825 293.5L848.425 310.351C846.484 313.787 844.977 317.45 843.936 321.256L824.312 325.604V344.265L843.936 348.66C844.965 352.485 846.473 356.165 848.425 359.612L837.637 376.58L850.846 389.765L867.791 378.978C871.219 380.924 874.873 382.439 878.672 383.49L883.044 403.091H901.634L906.005 383.49C909.793 382.429 913.439 380.914 916.863 378.978L917.733 379.542V290.68L917.028 291.15ZM892.492 359.306C887.721 359.306 883.058 357.892 879.093 355.241C875.127 352.59 872.036 348.823 870.212 344.415C868.387 340.008 867.911 335.158 868.843 330.48C869.776 325.802 872.075 321.505 875.449 318.134C878.824 314.763 883.123 312.468 887.802 311.54C892.481 310.612 897.33 311.093 901.736 312.922C906.141 314.751 909.906 317.845 912.553 321.813C915.199 325.782 916.61 330.446 916.605 335.216C916.605 338.382 915.981 341.516 914.769 344.441C913.557 347.365 911.78 350.022 909.541 352.259C907.301 354.496 904.643 356.27 901.718 357.479C898.792 358.689 895.657 359.309 892.492 359.306V359.306Z" fill="#B8B8FF"/>
<path d="M580.711 310.069V270.726L539.347 261.537C537.114 253.544 533.96 245.838 529.946 238.575L534.952 230.702H339.648L344.466 238.364C340.403 245.595 337.245 253.299 335.065 261.302L293.677 270.515V309.952L335.065 319.188C337.245 327.251 340.402 335.017 344.466 342.314L321.739 378.061L349.589 405.888L385.313 383.138C392.56 387.214 400.269 390.41 408.275 392.656L417.487 433.903H456.736L465.996 392.562C473.976 390.305 481.66 387.11 488.887 383.044L524.634 405.794L552.461 377.967L529.875 342.22C533.879 334.968 537.033 327.279 539.276 319.305L580.711 310.069ZM437.347 341.233C427.293 341.233 417.464 338.252 409.104 332.666C400.744 327.08 394.229 319.14 390.381 309.852C386.533 300.563 385.527 290.341 387.488 280.48C389.45 270.619 394.291 261.561 401.401 254.452C408.51 247.342 417.568 242.501 427.429 240.539C437.29 238.578 447.512 239.584 456.801 243.432C466.09 247.279 474.029 253.795 479.615 262.155C485.201 270.515 488.182 280.343 488.182 290.398C488.185 297.074 486.873 303.686 484.319 309.855C481.765 316.024 478.021 321.629 473.3 326.351C468.579 331.072 462.973 334.816 456.804 337.37C450.635 339.923 444.023 341.236 437.347 341.233V341.233Z" fill="#B8B8FF"/>
<path d="M319.671 580.228L321.34 548.993L288.977 539.874C287.475 533.455 285.251 527.227 282.349 521.307L301.903 493.857L280.939 470.613L251.655 487.065C246.058 483.543 240.072 480.68 233.817 478.533L228.224 445.348L197.013 443.914L187.988 476.371C181.558 477.813 175.324 480.022 169.421 482.952L141.994 463.421L118.703 484.362L135.296 513.669C131.738 519.242 128.866 525.223 126.741 531.484L117.34 533.035V575.339L124.203 577.266C125.626 583.706 127.828 589.949 130.76 595.857L117.269 614.776L118.162 630.969V631.11L132.099 646.551L161.43 629.982C167.018 633.576 173.024 636.472 179.315 638.607L184.815 670.476L185.073 671.816L216.284 673.461L217.107 670.476L225.309 641.028C231.768 639.582 238.033 637.373 243.97 634.447L271.35 653.954L294.618 633.037L278.166 603.706C281.69 598.14 284.523 592.166 286.603 585.915L319.671 580.228ZM236.778 531.46C231.432 525.514 224.442 521.286 216.693 519.313C208.944 517.34 200.783 517.709 193.244 520.374C185.704 523.04 179.125 527.881 174.338 534.286C169.55 540.692 166.77 548.373 166.349 556.359C165.928 564.344 167.885 572.275 171.973 579.148C176.06 586.021 182.094 591.528 189.311 594.971C196.528 598.414 204.605 599.64 212.519 598.492C220.433 597.344 227.828 593.875 233.77 588.524C241.704 581.356 246.475 571.337 247.038 560.66C247.602 549.983 243.913 539.518 236.778 531.554V531.46Z" fill="#B8B8FF"/>
<path d="M569.312 533.67C570.52 528.833 571.159 523.872 571.216 518.887L593.66 507.136L587.456 484.362L562.12 485.537C559.554 481.281 556.502 477.337 553.025 473.786L560.522 449.555L540.075 437.804L522.966 456.465C518.137 455.299 513.196 454.669 508.23 454.584L496.479 432.14L473.728 438.321L474.927 463.68C470.67 466.245 466.727 469.298 463.176 472.775L438.921 465.278L427.17 485.701L445.972 502.788C444.756 507.606 444.133 512.554 444.115 517.524L421.624 529.275L427.828 552.025L453.211 550.826C455.727 555.104 458.766 559.052 462.259 562.577L454.715 586.691L475.185 598.442L492.201 579.922C497.035 581.139 501.999 581.762 506.984 581.779L518.735 604.247L541.485 598.066L540.475 576.397L540.31 572.683C544.627 570.143 548.62 567.089 552.202 563.588L576.433 571.109L586.445 553.623L588.137 550.662L569.312 533.67ZM515.562 547.489C509.728 549.098 503.548 548.938 497.804 547.03C492.061 545.121 487.014 541.55 483.304 536.769C479.593 531.988 477.386 526.213 476.962 520.176C476.538 514.139 477.916 508.112 480.922 502.859C483.929 497.607 488.427 493.365 493.847 490.673C499.267 487.98 505.365 486.958 511.366 487.736C517.368 488.514 523.004 491.057 527.558 495.042C532.113 499.027 535.382 504.275 536.949 510.12C539.039 517.911 537.963 526.212 533.957 533.212C529.95 540.212 523.338 545.345 515.562 547.489V547.489Z" fill="#B8B8FF"/>
<path d="M829.529 573.718L834.7 542.459L803.066 529.745C802.347 523.083 800.824 516.533 798.53 510.238L821.303 484.879L802.878 459.026L771.478 472.352C766.266 468.174 760.568 464.638 754.51 461.823L752.677 427.768L721.419 422.598L708.61 454.091C701.977 454.87 695.456 456.408 689.174 458.674L663.744 435.9L638.009 454.326L651.358 485.702C647.684 490.288 644.494 495.242 641.84 500.484C641.487 501.213 641.111 501.942 640.782 502.67L606.751 504.55L601.557 535.761L606.681 537.83L633.191 548.523C633.915 555.153 635.438 561.672 637.727 567.936L614.906 593.459L633.356 619.312L664.731 605.916C669.927 610.131 675.618 613.699 681.676 616.539L683.439 650.429L714.674 655.599L727.459 624.341C734.106 623.615 740.641 622.084 746.919 619.782L772.301 642.556L798.154 624.106L784.804 592.707C789.057 587.49 792.648 581.767 795.498 575.668L829.529 573.718ZM741.866 572.307C735.29 577.025 727.462 579.687 719.374 579.957C711.285 580.226 703.298 578.09 696.423 573.82C689.548 569.549 684.094 563.336 680.75 555.966C677.407 548.595 676.324 540.399 677.639 532.413C678.954 524.427 682.608 517.011 688.138 511.102C693.668 505.193 700.827 501.057 708.708 499.216C716.59 497.376 724.84 497.914 732.415 500.763C739.99 503.612 746.551 508.643 751.267 515.22C757.583 524.044 760.137 535.015 758.365 545.72C756.593 556.426 750.641 565.99 741.819 572.307H741.866Z" fill="#B8B8FF"/>
<path d="M405.924 342.314H160.138C143.121 342.314 129.326 356.109 129.326 373.126V713.415C129.326 730.432 143.121 744.226 160.138 744.226H405.924C422.941 744.226 436.736 730.432 436.736 713.415V373.126C436.736 356.109 422.941 342.314 405.924 342.314Z" fill="#9381FF" stroke="#B8B8FF" stroke-width="1.10311" stroke-miterlimit="10"/>
<path d="M465.338 403.491V743.78C465.341 747.828 464.546 751.837 462.999 755.578C461.452 759.319 459.183 762.718 456.322 765.582C453.461 768.446 450.063 770.717 446.323 772.267C442.583 773.817 438.575 774.615 434.527 774.615H188.74C184.694 774.612 180.688 773.812 176.951 772.26C173.214 770.709 169.819 768.437 166.96 765.574C164.101 762.71 161.834 759.312 160.288 755.573C158.743 751.833 157.949 747.826 157.952 743.78V403.491C157.952 395.323 161.195 387.489 166.968 381.712C172.741 375.934 180.572 372.685 188.74 372.679H434.527C442.698 372.679 450.535 375.925 456.314 381.704C462.092 387.482 465.338 395.319 465.338 403.491Z" fill="white" stroke="#B8B8FF" stroke-width="1.10311" stroke-linecap="round" stroke-linejoin="round"/>
<path d="M465.338 403.491V421.705H157.952V403.491C157.952 395.323 161.195 387.489 166.968 381.712C172.741 375.934 180.572 372.685 188.74 372.679H434.527C442.698 372.679 450.535 375.925 456.314 381.704C462.092 387.482 465.338 395.319 465.338 403.491Z" fill="#9381FF" stroke="#B8B8FF" stroke-width="1.10311" stroke-miterlimit="10"/>
<path d="M262.49 442.81H186.86V455.501H262.49V442.81Z" fill="#9381FF"/>
<path d="M262.49 556.537H186.86V569.229H262.49V556.537Z" fill="#9381FF"/>
<path d="M262.49 659.665H186.86V672.357H262.49V659.665Z" fill="#9381FF"/>
<path d="M401.647 474.232H186.86V483.539H401.647V474.232Z" fill="#B8B8FF"/>
<path d="M362.915 492.024H186.86V501.095H362.915V492.024Z" fill="#B8B8FF"/>
<path d="M385.971 509.533H186.86V518.605H385.971V509.533Z" fill="#B8B8FF"/>
<path d="M385.971 527.018H186.86V536.09H385.971V527.018Z" fill="#B8B8FF"/>
<path d="M401.647 577.36H186.86V586.667H401.647V577.36Z" fill="#B8B8FF"/>
<path d="M362.915 595.152H186.86V604.223H362.915V595.152Z" fill="#B8B8FF"/>
<path d="M385.971 612.661H186.86V621.733H385.971V612.661Z" fill="#B8B8FF"/>
<path d="M401.647 690.594H186.86V699.901H401.647V690.594Z" fill="#B8B8FF"/>
<path d="M362.915 708.409H186.86V717.481H362.915V708.409Z" fill="#B8B8FF"/>
<path d="M385.971 725.918H186.86V734.99H385.971V725.918Z" fill="#B8B8FF"/>
<path d="M811.785 136.716V274.252C811.785 279.078 810.834 283.856 808.987 288.315C807.139 292.773 804.431 296.823 801.017 300.235C797.604 303.646 793.552 306.352 789.092 308.196C784.633 310.041 779.853 310.989 775.027 310.986H458.264C453.438 310.989 448.659 310.041 444.199 308.196C439.74 306.352 435.687 303.646 432.274 300.235C428.86 296.823 426.152 292.773 424.305 288.315C422.457 283.856 421.506 279.078 421.506 274.252V136.716C421.513 126.97 425.387 117.624 432.279 110.732C439.171 103.84 448.517 99.965 458.264 99.9588H775.027C784.776 99.9588 794.126 103.831 801.019 110.725C807.912 117.618 811.785 126.968 811.785 136.716Z" fill="white"/>
<path d="M811.785 136.716V139.866H421.506V136.716C421.513 126.97 425.387 117.624 432.279 110.732C439.171 103.84 448.517 99.965 458.264 99.9588H775.027C784.776 99.9588 794.126 103.831 801.019 110.725C807.912 117.618 811.785 126.968 811.785 136.716Z" fill="#9381FF" stroke="#B8B8FF" stroke-width="1.10311" stroke-miterlimit="10"/>
<path d="M478.852 126.493C478.064 127.283 477.059 127.822 475.964 128.04C474.869 128.259 473.735 128.148 472.703 127.722C471.672 127.295 470.79 126.572 470.17 125.644C469.549 124.716 469.218 123.625 469.218 122.509C469.218 121.393 469.549 120.302 470.17 119.374C470.79 118.446 471.672 117.723 472.703 117.297C473.735 116.87 474.869 116.759 475.964 116.978C477.059 117.197 478.064 117.735 478.852 118.526C479.901 119.586 480.489 121.017 480.489 122.509C480.489 124.001 479.901 125.432 478.852 126.493V126.493Z" fill="#B8B8FF"/>
<path d="M504.986 126.493C504.198 127.283 503.193 127.822 502.099 128.04C501.004 128.259 499.869 128.148 498.838 127.722C497.806 127.295 496.924 126.572 496.304 125.644C495.684 124.716 495.353 123.625 495.353 122.509C495.353 121.393 495.684 120.302 496.304 119.374C496.924 118.446 497.806 117.723 498.838 117.297C499.869 116.87 501.004 116.759 502.099 116.978C503.193 117.197 504.198 117.735 504.986 118.526C506.036 119.586 506.624 121.017 506.624 122.509C506.624 124.001 506.036 125.432 504.986 126.493V126.493Z" fill="#B8B8FF"/>
<path d="M531.121 126.493C530.332 127.283 529.327 127.822 528.233 128.04C527.138 128.259 526.003 128.148 524.972 127.722C523.941 127.295 523.059 126.572 522.438 125.644C521.818 124.716 521.487 123.625 521.487 122.509C521.487 121.393 521.818 120.302 522.438 119.374C523.059 118.446 523.941 117.723 524.972 117.297C526.003 116.87 527.138 116.759 528.233 116.978C529.327 117.197 530.332 117.735 531.121 118.526C532.17 119.586 532.758 121.017 532.758 122.509C532.758 124.001 532.17 125.432 531.121 126.493Z" fill="#B8B8FF"/>
<path d="M573.965 165.154H446.395V275.427H573.965V165.154Z" stroke="#B8B8FF" stroke-width="1.10311" stroke-linecap="round" stroke-linejoin="round" stroke-dasharray="4.41 4.41"/>
<path d="M740.479 165.154H593.66V172.91H740.479V165.154Z" fill="#B8B8FF"/>
<path d="M706.283 181.206H593.66V188.938H706.283V181.206Z" fill="#B8B8FF"/>
<path d="M761.349 197.188H593.66V205.014H761.349V197.188Z" fill="#B8B8FF"/>
<path d="M736.46 212.77H593.66V220.596H736.46V212.77Z" fill="#B8B8FF"/>
<path d="M822.455 478.063H750.656C742.18 478.063 735.309 484.934 735.309 493.41V535.55C735.309 544.026 742.18 550.897 750.656 550.897H822.455C830.931 550.897 837.802 544.026 837.802 535.55V493.41C837.802 484.934 830.931 478.063 822.455 478.063Z" fill="white" stroke="#B8B8FF" stroke-width="1.10311" stroke-linecap="round" stroke-linejoin="round"/>
<path d="M768.376 499.967L748.658 512.33L766.966 528.546" stroke="#B8B8FF" stroke-width="1.10311" stroke-linecap="round" stroke-linejoin="round"/>
<path d="M804.288 529.721L822.008 514.633L801.562 501.236" stroke="#9381FF" stroke-width="1.10311" stroke-linecap="round" stroke-linejoin="round"/>
<path d="M777.965 539.028L792.513 493.387" stroke="#B8B8FF" stroke-width="1.10311" stroke-linecap="round" stroke-linejoin="round"/>
<path d="M626.328 936.216C626.328 936.216 558.172 955.747 548.653 959.131C540.005 962.186 516.549 970.412 498.946 967.85C497.247 967.606 495.566 967.245 493.917 966.769C476.079 961.458 468.064 956.499 465.714 945.288C463.364 934.078 472.248 925.805 480.802 920.517C489.357 915.229 535.751 909.706 535.751 909.706L546.961 912.996L626.328 936.216Z" fill="#9381FF"/>
<path d="M498.946 967.85C497.247 967.606 495.566 967.245 493.917 966.769C476.079 961.458 468.064 956.499 465.714 945.288C463.364 934.078 472.248 925.805 480.802 920.517C489.357 915.229 535.751 909.706 535.751 909.706L546.961 912.996C536.808 917.697 499.017 920.258 490.767 925.006C482.518 929.753 478.546 938.684 483.411 950.858C486.02 957.204 492.977 963.432 498.946 967.85Z" fill="white"/>
<path d="M616.081 938.99C616.081 938.99 564.893 952.245 544.588 960.729C524.282 969.214 485.573 972.927 471.731 955.441C457.888 937.956 470.132 922.867 483.928 919.506C497.724 916.146 525.621 910.858 540.851 912.996" stroke="#B8B8FF" stroke-width="1.10311" stroke-linecap="round" stroke-linejoin="round"/>
<path d="M499.957 966.934C499.957 966.934 473.916 952.645 482.565 932.621C488.958 917.861 523.694 921.057 540.898 912.996" stroke="#B8B8FF" stroke-width="1.10311" stroke-linecap="round" stroke-linejoin="round"/>
<path d="M833.924 971.023C833.219 978.074 830.751 984.678 823.701 988.838C819 991.611 812.325 993.257 802.76 993.163C778.858 992.857 733.922 975.771 733.922 975.771L691.853 952.504L713.733 917.885L719.727 908.484L735.191 911.962C735.191 911.962 748 919.224 760.879 925.006C773.758 930.788 805.04 932.057 816.062 940.917C827.085 949.777 835.123 959.413 833.924 971.023Z" fill="#9381FF"/>
<path d="M833.924 971.023C833.219 978.074 830.751 984.678 823.701 988.838C825.732 981.907 825.317 974.488 822.525 967.827C817.825 957.275 802.525 947.968 782.407 946.417C762.289 944.865 746.895 935.464 738.834 931.258C732.535 927.991 719.256 920.846 713.733 917.885L719.727 908.484L735.191 911.962C735.191 911.962 748 919.224 760.879 925.006C773.758 930.788 805.04 932.057 816.062 940.917C827.085 949.777 835.123 959.413 833.924 971.023Z" fill="white"/>
<path d="M701.183 959.037C731.465 976.64 764.934 988.07 799.658 992.669C807.319 993.585 816.227 993.726 821.35 987.968C822.713 986.305 823.728 984.385 824.334 982.322C824.939 980.259 825.124 978.095 824.876 975.959C823.959 965.148 814.864 956.593 804.899 952.292C794.934 947.991 783.958 947.004 773.359 944.63C762.817 942.254 752.627 938.525 743.041 933.537C735.426 929.565 728.07 924.747 719.679 922.961C711.289 921.175 701.301 923.337 696.812 930.67" stroke="#B8B8FF" stroke-width="1.10311" stroke-linecap="round" stroke-linejoin="round"/>
<path d="M818.53 990.906C822.468 989.021 825.91 986.241 828.583 982.789C831.256 979.337 833.085 975.308 833.924 971.023C835.452 960.847 829.647 950.6 821.491 944.348C813.336 938.097 803.113 935.135 793.03 933.044C782.948 930.952 772.63 929.542 762.971 925.711C748.235 919.929 733.687 908.554 718.316 912.62" stroke="#B8B8FF" stroke-width="1.10311" stroke-linecap="round" stroke-linejoin="round"/>
<path d="M748.658 594.94L677.469 567.865L676.576 567.513C676.576 567.513 676.835 565.633 677.046 562.812C677.493 557.125 677.728 547.865 675.049 544.739C671.077 540.039 659.843 543.987 648.867 538.958C637.892 533.928 617.609 542.93 617.609 542.93C617.609 542.93 602.944 540.227 596.457 550.803C593.167 559.334 594.295 571.955 594.295 571.955L592.955 572.425C584.471 575.598 538.312 592.966 528.559 599.946C517.771 607.584 505.832 686.011 502.002 709.044C498.171 732.076 491.355 752.828 494.81 760.749C498.265 768.669 547.854 806.86 576.386 816.707C604.918 826.555 706.095 823.758 706.095 823.758C706.095 823.758 707.74 823.312 710.678 822.371C727.788 816.872 788.494 794.169 820.716 740.866C820.763 740.96 789.552 638.654 748.658 594.94ZM556.315 726.858C551.074 730.572 553.965 744.955 553.965 744.955L545.058 737.105L567.432 682.086L576.974 724.391C576.974 724.391 561.556 723.168 556.315 726.858V726.858ZM735.309 761.806C732.841 763.075 742.359 736.635 737.847 730.642C733.334 724.649 719.727 725.213 719.727 725.213L720.878 717.998L728.939 676.634L731.619 673.461C731.619 673.461 759.304 720.912 764.263 737.646C764.263 737.693 734.086 761.806 735.309 761.806Z" fill="#9381FF"/>
<path d="M614.248 423.35L577.491 462.364C577.491 462.364 572.438 466.853 574.435 478.157C576.433 489.462 581.134 499.309 584.682 499.967C587.492 500.459 590.338 500.711 593.19 500.719C593.19 500.719 601.063 517.782 606.657 524.48C606.657 524.48 608.584 550.826 607.55 558.135C607.55 558.135 620.758 569.675 633.191 571.132C645.624 572.589 664.825 553.553 664.825 553.553L669.526 530.238C669.526 530.238 680.807 513.129 681.559 508.569C682.311 504.01 687.481 505.185 690.02 502.929C692.558 500.672 698.41 490.637 699.42 481.142C700.431 471.647 700.455 460.742 689.432 463.938C679.867 461.377 685.86 441.165 685.86 441.165L669.056 426.358L614.248 423.35Z" fill="white"/>
<path opacity="0.5" d="M677.469 567.865C676.915 569.318 676.279 570.738 675.566 572.119C669.502 583.541 643.086 605.328 643.086 605.328L635.095 580.768L630.723 605.328C621.91 601.474 595.023 578.183 595.023 578.183C595.023 578.183 594.107 575.997 593.002 572.589L594.342 572.119C594.342 572.119 593.214 559.405 596.504 550.967C602.944 540.391 617.656 543.094 617.656 543.094C617.656 543.094 637.939 534.093 648.914 539.122C659.89 544.152 671.124 540.25 675.096 544.904C679.067 549.557 676.623 567.607 676.623 567.607L677.469 567.865Z" fill="white"/>
<path d="M606.657 524.48C606.657 524.48 608.678 544.434 606.657 553.553" stroke="#B8B8FF" stroke-width="1.10311" stroke-linecap="round" stroke-linejoin="round"/>
<path d="M666.87 550.873C666.892 544.457 667.633 538.064 669.079 531.813" stroke="#B8B8FF" stroke-width="1.10311" stroke-linecap="round" stroke-linejoin="round"/>
<path d="M672.205 438.227C672.205 438.227 684.285 453.386 683.65 464.855C683.016 476.324 682.123 489.908 682.428 503.211C682.734 516.513 661.065 544.387 649.925 546.854C638.785 549.322 629.196 549.957 622.074 542.836C614.953 535.714 607.832 525.82 598.572 513.129C589.312 500.437 591.522 472.587 591.522 472.587" stroke="#B8B8FF" stroke-width="1.10311" stroke-linecap="round" stroke-linejoin="round"/>
<path d="M643.109 483.187C642.373 487.351 642.058 491.58 642.169 495.807C641.927 499.371 643.034 502.894 645.271 505.678C646.611 507.042 648.538 508.146 648.797 510.026C648.79 510.873 648.555 511.702 648.117 512.425C647.678 513.149 647.052 513.741 646.305 514.139C644.798 514.9 643.345 515.763 641.958 516.725" stroke="#B8B8FF" stroke-width="1.10311" stroke-linecap="round" stroke-linejoin="round"/>
<path d="M624.002 518.182C624.002 518.182 625.388 527.183 637.445 529.063" stroke="#B8B8FF" stroke-width="1.10311" stroke-linecap="round" stroke-linejoin="round"/>
<path d="M625.247 490.049C625.247 492.658 624.119 494.75 622.732 494.75C621.346 494.75 620.218 492.658 620.218 490.049C620.218 487.441 621.346 485.349 622.732 485.349C624.119 485.349 625.247 487.464 625.247 490.049Z" fill="#B8B8FF"/>
<path d="M661.229 491.178C661.229 493.786 660.101 495.878 658.715 495.878C657.328 495.878 656.2 493.763 656.2 491.178C656.2 488.592 657.328 486.477 658.715 486.477C660.101 486.477 661.229 488.569 661.229 491.178Z" fill="#B8B8FF"/>
<path d="M653.967 479.779C653.967 479.779 665.718 468.028 675.566 481.142" stroke="#B8B8FF" stroke-width="2.20621" stroke-linecap="round" stroke-linejoin="round"/>
<path d="M629.219 480.014C629.219 480.014 621.793 471.694 610.088 480.014" stroke="#B8B8FF" stroke-width="2.20621" stroke-linecap="round" stroke-linejoin="round"/>
<path d="M607.55 535.573C607.55 535.573 614.718 555.315 630.723 560.932C646.728 566.549 667.974 537.43 667.974 537.43L666.87 533.646C666.87 533.646 652.933 551.743 637.445 548.664C621.957 545.585 606.657 524.574 606.657 524.574L607.55 535.573Z" fill="#B8B8FF"/>
<path d="M593.19 499.967C593.19 499.967 583.648 503.328 581.11 495.901C578.572 488.475 569.876 468.897 577.491 462.364C585.105 455.83 591.216 470.989 591.216 470.989" stroke="#B8B8FF" stroke-width="1.10311" stroke-linecap="round" stroke-linejoin="round"/>
<path d="M682.405 504.01C682.405 504.01 691.265 505.796 693.803 498.369C696.342 490.943 705.037 471.365 697.423 464.831C689.808 458.298 683.697 473.457 683.697 473.457" stroke="#B8B8FF" stroke-width="1.10311" stroke-linecap="round" stroke-linejoin="round"/>
<path d="M591.216 490.049C594.531 489.527 597.522 487.762 599.583 485.114C600.841 482.789 601.639 480.244 601.933 477.617C602.806 472.619 603.246 467.555 603.249 462.481C603.146 460.499 603.328 458.512 603.79 456.582C604.495 454.64 605.582 452.858 606.986 451.341C610.3 447.44 614.319 444.15 617.492 440.107C619.192 438.2 620.486 435.965 621.294 433.541C622.103 431.116 622.408 428.552 622.192 426.006C629.463 432.001 637.959 436.33 647.083 438.689C656.206 441.048 665.736 441.38 675.002 439.661C691.806 436.37 707.905 421.634 705.954 403.115C705.586 400.009 704.254 397.098 702.147 394.788C700.039 392.478 697.261 390.886 694.203 390.235C685.907 388.167 678.456 392.586 670.936 395.429C657.234 400.6 643.814 391.716 629.971 390.235C618.22 388.943 603.578 390.423 597.421 402.198C597.421 402.198 576.269 404.689 566.868 422.175C557.467 439.661 575.258 463.844 575.258 463.844C575.258 463.844 582.309 455.196 591.545 472.681L591.216 490.049Z" fill="#9381FF"/>
<path d="M673.662 433.761C673.662 433.761 668.163 462.434 682.522 476.324C682.522 476.324 685.672 467.699 688.845 465.584C691.132 460.495 692.101 454.912 691.661 449.351C691.222 443.789 689.388 438.427 686.33 433.761C675.707 417.075 673.662 433.761 673.662 433.761Z" fill="#9381FF"/>
<path opacity="0.2" d="M699.844 401.14C698.583 405.053 696.445 408.625 693.594 411.586C690.743 414.547 687.254 416.818 683.392 418.227C663.462 426.358 644.12 417.357 624.143 415.594C607.856 414.137 589.876 428.85 588.725 445.583" stroke="white" stroke-width="1.10311" stroke-linecap="round" stroke-linejoin="round"/>
<path opacity="0.2" d="M576.433 441.165C576.677 434.561 578.796 428.164 582.542 422.72C586.287 417.277 591.505 413.012 597.585 410.424" stroke="white" stroke-width="1.10311" stroke-linecap="round" stroke-linejoin="round"/>
<path d="M602.051 550.873C610.815 560.007 621.389 567.211 633.097 572.025C633.097 572.025 656.952 565.092 669.079 548.523" stroke="#B8B8FF" stroke-width="1.10311" stroke-linecap="round" stroke-linejoin="round"/>
<path d="M626.429 509.186C637.023 504.327 641.673 491.799 636.813 481.204C631.954 470.609 619.425 465.96 608.831 470.82C598.236 475.679 593.587 488.207 598.446 498.802C603.306 509.397 615.834 514.046 626.429 509.186Z" stroke="#B8B8FF" stroke-width="1.10311" stroke-linecap="round" stroke-linejoin="round"/>
<path d="M667.325 511.044C678.894 509.623 687.121 499.093 685.701 487.524C684.28 475.955 673.75 467.728 662.181 469.149C650.612 470.569 642.385 481.099 643.805 492.668C645.226 504.237 655.756 512.464 667.325 511.044Z" stroke="#B8B8FF" stroke-width="1.10311" stroke-linecap="round" stroke-linejoin="round"/>
<path d="M606.657 543C604.519 543.561 602.516 544.548 600.767 545.9C599.019 547.253 597.561 548.945 596.48 550.873C592.744 557.454 595 578.159 595 578.159C595 578.159 614.295 597.243 630.723 605.305L635.565 578.065L643.085 605.305C643.085 605.305 668.515 587.325 675.566 572.119C675.566 572.119 677.916 554.375 675.566 548.617C675.031 547.018 674.014 545.623 672.655 544.626C671.295 543.628 669.66 543.077 667.974 543.047" stroke="#B8B8FF" stroke-width="1.10311" stroke-linecap="round" stroke-linejoin="round"/>
<path d="M576.433 725.237C576.433 725.237 568.889 674.707 558.854 654.095" stroke="#B8B8FF" stroke-width="1.10311" stroke-linecap="round" stroke-linejoin="round"/>
<path d="M537.161 609.253C543.004 617.557 548.22 626.285 552.766 635.364" stroke="#B8B8FF" stroke-width="1.10311" stroke-linecap="round" stroke-linejoin="round"/>
<path d="M735.309 646.974C737.335 638.526 740.111 630.275 743.605 622.32" stroke="#B8B8FF" stroke-width="1.10311" stroke-linecap="round" stroke-linejoin="round"/>
<path d="M719.727 725.237C719.727 725.237 725.156 690.594 731.642 662.062" stroke="#B8B8FF" stroke-width="1.10311" stroke-linecap="round" stroke-linejoin="round"/>
<path d="M728.939 676.587C734.187 669.629 741.566 664.578 749.95 662.203" stroke="#B8B8FF" stroke-width="1.10311" stroke-linecap="round" stroke-linejoin="round"/>
<path d="M676.6 567.513C676.6 567.513 720.385 585.022 748.658 594.964C748.658 594.964 783.441 627.655 820.739 740.96C820.739 740.96 786.567 798.446 721.56 816.872" stroke="#B8B8FF" stroke-width="1.10311" stroke-linecap="round" stroke-linejoin="round"/>
<path d="M732.841 763.851L764.263 737.693C764.263 737.693 780.879 725.072 798.154 733.697" stroke="#B8B8FF" stroke-width="1.10311" stroke-linecap="round" stroke-linejoin="round"/>
<path d="M731.642 673.461C731.642 673.461 757.612 711.84 764.263 737.693" stroke="#B8B8FF" stroke-width="1.10311" stroke-linecap="round" stroke-linejoin="round"/>
<path d="M554.153 746.412L544.964 737.693C544.964 737.693 531.332 735.343 515.868 745.66" stroke="#B8B8FF" stroke-width="1.10311" stroke-linecap="round" stroke-linejoin="round"/>
<path d="M544.964 737.693C544.964 737.693 556.386 700.089 567.643 680.841" stroke="#B8B8FF" stroke-width="1.10311" stroke-linecap="round" stroke-linejoin="round"/>
<path d="M594.342 572.119C594.342 572.119 531.332 595.763 525.151 602.672C518.97 609.582 495.491 741.782 494.857 756.918C494.316 770.455 543.389 800.843 567.714 813.652" stroke="#B8B8FF" stroke-width="1.10311" stroke-linecap="round" stroke-linejoin="round"/>
<path d="M641.464 616.797C641.464 617.62 641.22 618.424 640.763 619.108C640.306 619.792 639.656 620.326 638.896 620.64C638.136 620.955 637.299 621.038 636.492 620.877C635.685 620.717 634.944 620.32 634.362 619.739C633.781 619.157 633.384 618.416 633.224 617.609C633.063 616.802 633.146 615.965 633.461 615.205C633.776 614.445 634.309 613.795 634.993 613.338C635.677 612.881 636.481 612.637 637.304 612.637C637.851 612.634 638.393 612.74 638.9 612.948C639.406 613.155 639.866 613.462 640.252 613.849C640.639 614.236 640.946 614.695 641.154 615.202C641.361 615.708 641.467 616.25 641.464 616.797V616.797Z" fill="#B8B8FF"/>
<path d="M714.368 838.236H571.004C570.113 838.236 569.258 837.881 568.628 837.251C567.997 836.621 567.643 835.766 567.643 834.875C567.643 833.983 567.997 833.129 568.628 832.498C569.258 831.868 570.113 831.514 571.004 831.514H714.368C715.259 831.514 716.114 831.868 716.744 832.498C717.375 833.129 717.729 833.983 717.729 834.875C717.729 835.766 717.375 836.621 716.744 837.251C716.114 837.881 715.259 838.236 714.368 838.236Z" fill="#B8B8FF"/>
<path d="M719.397 827.001L738.599 736.753C738.897 735.353 738.878 733.905 738.544 732.514C738.209 731.123 737.568 729.824 736.666 728.713C735.765 727.602 734.626 726.707 733.334 726.093C732.042 725.48 730.628 725.163 729.198 725.166H561.627C560.208 725.166 558.807 725.481 557.525 726.088C556.243 726.695 555.112 727.579 554.212 728.676C553.313 729.773 552.669 731.056 552.325 732.433C551.982 733.809 551.948 735.244 552.226 736.635L569.453 823.876C569.875 826.018 571.016 827.953 572.687 829.359C574.358 830.765 576.459 831.558 578.642 831.608L709.761 834.616C712.002 834.666 714.191 833.933 715.95 832.543C717.709 831.153 718.928 829.193 719.397 827.001V827.001Z" fill="white" stroke="#B8B8FF" stroke-width="1.10311" stroke-linecap="round" stroke-linejoin="round"/>
<path d="M658.245 777.247C658.24 779.891 657.452 782.474 655.979 784.67C654.507 786.866 652.417 788.577 649.973 789.585C647.529 790.594 644.841 790.855 642.249 790.337C639.656 789.818 637.275 788.542 635.408 786.671C633.54 784.8 632.268 782.417 631.754 779.824C631.24 777.23 631.506 774.543 632.519 772.101C633.532 769.658 635.246 767.571 637.445 766.103C639.643 764.635 642.228 763.851 644.872 763.851C646.63 763.851 648.371 764.198 649.995 764.871C651.619 765.545 653.094 766.532 654.336 767.776C655.578 769.02 656.563 770.497 657.233 772.122C657.904 773.748 658.248 775.489 658.245 777.247Z" fill="#B8B8FF"/>
<path d="M684.544 733.791H704.45" stroke="#B8B8FF" stroke-width="1.10311" stroke-linecap="round" stroke-linejoin="round"/>
<path d="M589.477 733.791H665.037" stroke="#B8B8FF" stroke-width="1.10311" stroke-linecap="round" stroke-linejoin="round"/>
<path d="M719.727 922.82L704.45 962.915C704.45 962.915 665.483 953.091 615.588 942.868C563.389 932.174 508.888 918.331 480.614 868.718C477.183 862.678 474.88 855.533 476.502 848.765C480.567 831.631 502.871 826.978 517.56 825.262C526.795 824.263 536.075 823.746 545.363 823.711C550.064 823.711 565.693 821.149 569.477 823.946C575.162 828.094 581.229 831.69 587.597 834.687C595.94 838.235 717.729 831.514 717.729 831.514C719.848 826.893 721.144 821.938 721.56 816.872C740.714 807.142 785.016 798.916 803.818 802.559C833.266 808.27 850.446 825.45 847.179 843.453C843.912 861.456 778.858 909.729 719.727 922.82Z" fill="#B8B8FF"/>
<path d="M719.727 922.82C719.727 922.82 682.663 912.996 652.393 892.549C622.122 872.102 598.478 848.365 556.292 853.277" stroke="white" stroke-width="1.10311" stroke-linecap="round" stroke-linejoin="round"/>
<path d="M645.459 887.731C664.59 882.232 678.621 869.846 693.968 857.977C710.155 844.986 727.539 833.56 745.884 823.852" stroke="white" stroke-width="1.10311" stroke-linecap="round" stroke-linejoin="round"/>
<path d="M638.714 493.387H644.331" stroke="#B8B8FF" stroke-width="1.10311" stroke-linecap="round" stroke-linejoin="round"/>
</svg>
